<svg width="836" height="561" viewBox="0 0 836 561" fill="none" xmlns="http://www.w3.org/2000/svg">
<path d="M277.5 495.072C267.979 495.072 258.552 496.96 249.755 500.629C240.959 504.298 232.967 509.675 226.235 516.453C219.503 523.232 214.162 531.28 210.519 540.136C206.875 548.993 205 558.486 205 568.072C205 577.659 206.875 587.151 210.519 596.008C214.162 604.865 219.503 612.912 226.235 619.691C232.967 626.47 240.959 631.847 249.755 635.515C258.552 639.184 267.979 641.072 277.5 641.072L277.5 568.072L277.5 495.072Z" fill="#489D92"/>
<path d="M277.5 350.072C267.979 350.072 258.552 351.96 249.755 355.629C240.959 359.298 232.967 364.675 226.235 371.453C219.503 378.232 214.162 386.28 210.519 395.136C206.875 403.993 205 413.486 205 423.072C205 432.659 206.875 442.151 210.519 451.008C214.162 459.865 219.503 467.912 226.235 474.691C232.967 481.47 240.959 486.847 249.755 490.515C258.552 494.184 267.979 496.072 277.5 496.072L277.5 423.072L277.5 350.072Z" fill="#FC6A65"/>
<path d="M558 100.572V61.0723M587.5 107.072L615 79.5723M605 129.572H645.5" stroke="#560FD7" stroke-width="1.5" stroke-linecap="round"/>
<g filter="url(#filter0_d_2_984)">
<path d="M250.364 167.615C250.364 138.596 273.888 115.072 302.907 115.072H534.093C563.112 115.072 586.636 138.596 586.636 167.615V743.479C586.636 772.497 563.112 796.021 534.093 796.021H302.907C273.888 796.021 250.364 772.497 250.364 743.479V167.615Z" fill="black"/>
<path d="M250.364 167.615C250.364 138.596 273.888 115.072 302.907 115.072H534.093C563.112 115.072 586.636 138.596 586.636 167.615V743.479C586.636 772.497 563.112 796.021 534.093 796.021H302.907C273.888 796.021 250.364 772.497 250.364 743.479V167.615Z" fill="url(#paint0_linear_2_984)" fill-opacity="0.7"/>
<path d="M250.364 167.615C250.364 138.596 273.888 115.072 302.907 115.072H534.093C563.112 115.072 586.636 138.596 586.636 167.615V743.479C586.636 772.497 563.112 796.021 534.093 796.021H302.907C273.888 796.021 250.364 772.497 250.364 743.479V167.615Z" fill="url(#paint1_linear_2_984)"/>
<path d="M250.364 167.615C250.364 138.596 273.888 115.072 302.907 115.072H534.093C563.112 115.072 586.636 138.596 586.636 167.615V743.479C586.636 772.497 563.112 796.021 534.093 796.021H302.907C273.888 796.021 250.364 772.497 250.364 743.479V167.615Z" fill="url(#paint2_linear_2_984)" style="mix-blend-mode:lighten"/>
</g>
<g filter="url(#filter1_d_2_984)">
<path fill-rule="evenodd" clip-rule="evenodd" d="M534.093 116.386H302.907C274.614 116.386 251.678 139.322 251.678 167.615V743.479C251.678 771.772 274.614 794.708 302.907 794.708H534.093C562.386 794.708 585.322 771.772 585.322 743.479V167.615C585.322 139.322 562.386 116.386 534.093 116.386ZM302.907 115.072C273.888 115.072 250.364 138.596 250.364 167.615V743.479C250.364 772.497 273.888 796.021 302.907 796.021H534.093C563.112 796.021 586.636 772.497 586.636 743.479V167.615C586.636 138.596 563.112 115.072 534.093 115.072H302.907Z" fill="url(#paint3_linear_2_984)" fill-opacity="0.5"/>
<path fill-rule="evenodd" clip-rule="evenodd" d="M534.093 116.386H302.907C274.614 116.386 251.678 139.322 251.678 167.615V743.479C251.678 771.772 274.614 794.708 302.907 794.708H534.093C562.386 794.708 585.322 771.772 585.322 743.479V167.615C585.322 139.322 562.386 116.386 534.093 116.386ZM302.907 115.072C273.888 115.072 250.364 138.596 250.364 167.615V743.479C250.364 772.497 273.888 796.021 302.907 796.021H534.093C563.112 796.021 586.636 772.497 586.636 743.479V167.615C586.636 138.596 563.112 115.072 534.093 115.072H302.907Z" fill="url(#paint4_linear_2_984)"/>
</g>
<path d="M586.635 272.436L587.971 272.732C588.572 272.866 588.999 273.399 588.999 274.015V349.933C588.999 350.548 588.572 351.081 587.971 351.215L586.635 351.512V272.436Z" fill="white"/>
<path d="M586.635 272.436L587.971 272.732C588.572 272.866 588.999 273.399 588.999 274.015V349.933C588.999 350.548 588.572 351.081 587.971 351.215L586.635 351.512V272.436Z" fill="url(#paint5_linear_2_984)"/>
<path d="M586.635 272.436L587.971 272.732C588.572 272.866 588.999 273.399 588.999 274.015V349.933C588.999 350.548 588.572 351.081 587.971 351.215L586.635 351.512V272.436Z" fill="url(#paint6_linear_2_984)" fill-opacity="0.8"/>
<path fill-rule="evenodd" clip-rule="evenodd" d="M586.635 272.436V351.512L587.971 351.215C588.572 351.081 588.999 350.548 588.999 349.933V274.015C588.999 273.399 588.572 272.866 587.971 272.732L586.635 272.436ZM587.16 273.091V350.857L587.857 350.702C588.217 350.622 588.474 350.302 588.474 349.933V274.015C588.474 273.645 588.217 273.325 587.857 273.245L587.16 273.091Z" fill="url(#paint7_radial_2_984)" fill-opacity="0.5"/>
<path d="M250.364 207.021L249.029 207.12C248.428 207.164 248 207.342 248 207.546V232.768C248 232.973 248.428 233.15 249.029 233.194L250.364 233.293V207.021Z" fill="white"/>
<path d="M250.364 207.021L249.029 207.12C248.428 207.164 248 207.342 248 207.546V232.768C248 232.973 248.428 233.15 249.029 233.194L250.364 233.293V207.021Z" fill="url(#paint8_linear_2_984)"/>
<path d="M250.364 207.021L249.029 207.12C248.428 207.164 248 207.342 248 207.546V232.768C248 232.973 248.428 233.15 249.029 233.194L250.364 233.293V207.021Z" fill="url(#paint9_linear_2_984)" fill-opacity="0.8"/>
<path fill-rule="evenodd" clip-rule="evenodd" d="M250.364 207.021V233.293L249.029 233.194C248.428 233.15 248 232.973 248 232.768V207.546C248 207.342 248.428 207.164 249.029 207.12L250.364 207.021ZM249.839 207.239V233.075L249.143 233.024C248.782 232.997 248.525 232.891 248.525 232.768V207.546C248.525 207.423 248.782 207.317 249.143 207.291L249.839 207.239Z" fill="url(#paint10_radial_2_984)" fill-opacity="0.5"/>
<path d="M250.364 256.411L249.029 256.594C248.428 256.676 248 257.003 248 257.382V304.042C248 304.421 248.428 304.748 249.029 304.831L250.364 305.013V256.411Z" fill="white"/>
<path d="M250.364 256.411L249.029 256.594C248.428 256.676 248 257.003 248 257.382V304.042C248 304.421 248.428 304.748 249.029 304.831L250.364 305.013V256.411Z" fill="url(#paint11_linear_2_984)"/>
<path d="M250.364 256.411L249.029 256.594C248.428 256.676 248 257.003 248 257.382V304.042C248 304.421 248.428 304.748 249.029 304.831L250.364 305.013V256.411Z" fill="url(#paint12_linear_2_984)" fill-opacity="0.8"/>
<path fill-rule="evenodd" clip-rule="evenodd" d="M250.364 256.411V305.013L249.029 304.831C248.428 304.748 248 304.421 248 304.042V257.382C248 257.003 248.428 256.676 249.029 256.594L250.364 256.411ZM249.839 256.814V304.61L249.143 304.515C248.782 304.466 248.525 304.269 248.525 304.042V257.382C248.525 257.155 248.782 256.958 249.143 256.909L249.839 256.814Z" fill="url(#paint13_radial_2_984)" fill-opacity="0.5"/>
<path d="M250.365 319.201L249.029 319.384C248.428 319.466 248.001 319.793 248.001 320.172V366.832C248.001 367.211 248.428 367.538 249.029 367.62L250.365 367.803V319.201Z" fill="white"/>
<path d="M250.365 319.201L249.029 319.384C248.428 319.466 248.001 319.793 248.001 320.172V366.832C248.001 367.211 248.428 367.538 249.029 367.62L250.365 367.803V319.201Z" fill="url(#paint14_linear_2_984)"/>
<path d="M250.365 319.201L249.029 319.384C248.428 319.466 248.001 319.793 248.001 320.172V366.832C248.001 367.211 248.428 367.538 249.029 367.62L250.365 367.803V319.201Z" fill="url(#paint15_linear_2_984)" fill-opacity="0.8"/>
<path fill-rule="evenodd" clip-rule="evenodd" d="M250.365 319.201V367.803L249.029 367.62C248.428 367.538 248.001 367.211 248.001 366.832V320.172C248.001 319.793 248.428 319.466 249.029 319.384L250.365 319.201ZM249.84 319.604V367.4L249.143 367.305C248.783 367.256 248.526 367.059 248.526 366.832V320.172C248.526 319.945 248.783 319.748 249.143 319.699L249.84 319.604Z" fill="url(#paint16_radial_2_984)" fill-opacity="0.5"/>
<path d="M535.393 128.733H546.099C558.925 128.733 574.651 143.314 575.865 163.674C576.213 169.512 576.114 178.649 576.114 178.649L574.489 178.123C574.489 178.123 574.51 169.305 574.126 163.674C572.569 140.818 558.22 128.733 535.393 128.733Z" fill="url(#paint17_linear_2_984)"/>
<path d="M535.393 128.733H546.099C558.925 128.733 574.651 143.314 575.865 163.674C576.213 169.512 576.114 178.649 576.114 178.649L574.489 178.123C574.489 178.123 574.51 169.305 574.126 163.674C572.569 140.818 558.22 128.733 535.393 128.733Z" fill="url(#paint18_radial_2_984)"/>
<path d="M535.393 128.733H546.099C558.925 128.733 574.651 143.314 575.865 163.674C576.213 169.512 576.114 178.649 576.114 178.649L574.489 178.123C574.489 178.123 574.51 169.305 574.126 163.674C572.569 140.818 558.22 128.733 535.393 128.733Z" fill="url(#paint19_linear_2_984)"/>
<path d="M301.607 128.733H290.901C278.075 128.733 262.349 143.314 261.135 163.674C260.787 169.512 260.886 178.649 260.886 178.649L262.511 178.123C262.511 178.123 262.49 169.305 262.874 163.674C264.431 140.818 278.78 128.733 301.607 128.733Z" fill="url(#paint20_linear_2_984)"/>
<path d="M301.607 128.733H290.901C278.075 128.733 262.349 143.314 261.135 163.674C260.787 169.512 260.886 178.649 260.886 178.649L262.511 178.123C262.511 178.123 262.49 169.305 262.874 163.674C264.431 140.818 278.78 128.733 301.607 128.733Z" fill="url(#paint21_radial_2_984)"/>
<path d="M301.607 128.733H290.901C278.075 128.733 262.349 143.314 261.135 163.674C260.787 169.512 260.886 178.649 260.886 178.649L262.511 178.123C262.511 178.123 262.49 169.305 262.874 163.674C264.431 140.818 278.78 128.733 301.607 128.733Z" fill="url(#paint22_linear_2_984)"/>
<defs>
<filter id="filter0_d_2_984" x="0.36438" y="-54.9277" width="836.271" height="1180.95" filterUnits="userSpaceOnUse" color-interpolation-filters="sRGB">
<feFlood flood-opacity="0" result="BackgroundImageFix"/>
<feColorMatrix in="SourceAlpha" type="matrix" values="0 0 0 0 0 0 0 0 0 0 0 0 0 0 0 0 0 0 127 0" result="hardAlpha"/>
<feOffset dy="80"/>
<feGaussianBlur stdDeviation="125"/>
<feColorMatrix type="matrix" values="0 0 0 0 0.170761 0 0 0 0 0.170761 0 0 0 0 0.170761 0 0 0 0.2 0"/>
<feBlend mode="multiply" in2="BackgroundImageFix" result="effect1_dropShadow_2_984"/>
<feBlend mode="normal" in="SourceGraphic" in2="effect1_dropShadow_2_984" result="shape"/>
</filter>
<filter id="filter1_d_2_984" x="0.36438" y="-54.9277" width="836.271" height="1180.95" filterUnits="userSpaceOnUse" color-interpolation-filters="sRGB">
<feFlood flood-opacity="0" result="BackgroundImageFix"/>
<feColorMatrix in="SourceAlpha" type="matrix" values="0 0 0 0 0 0 0 0 0 0 0 0 0 0 0 0 0 0 127 0" result="hardAlpha"/>
<feOffset dy="80"/>
<feGaussianBlur stdDeviation="125"/>
<feColorMatrix type="matrix" values="0 0 0 0 0 0 0 0 0 0 0 0 0 0 0 0 0 0 0.2 0"/>
<feBlend mode="multiply" in2="BackgroundImageFix" result="effect1_dropShadow_2_984"/>
<feBlend mode="normal" in="SourceGraphic" in2="effect1_dropShadow_2_984" result="shape"/>
</filter>
<linearGradient id="paint0_linear_2_984" x1="250.364" y1="395.309" x2="586.636" y2="395.573" gradientUnits="userSpaceOnUse">
<stop/>
<stop offset="0.00858091" stop-color="white"/>
<stop offset="0.0304687"/>
<stop offset="0.971094"/>
<stop offset="0.990616" stop-color="white"/>
<stop offset="1"/>
</linearGradient>
<linearGradient id="paint1_linear_2_984" x1="418.5" y1="115.072" x2="418.5" y2="796.021" gradientUnits="userSpaceOnUse">
<stop stop-color="#A9ADB5"/>
<stop offset="0.00692308" stop-color="#72767F"/>
<stop offset="0.00702308" stop-opacity="0"/>
</linearGradient>
<linearGradient id="paint2_linear_2_984" x1="345.992" y1="792.081" x2="345.992" y2="597.937" gradientUnits="userSpaceOnUse">
<stop stop-color="#656B74"/>
<stop offset="0.00277496" stop-color="#72767F"/>
<stop offset="0.00287496"/>
</linearGradient>
<linearGradient id="paint3_linear_2_984" x1="418.5" y1="115.072" x2="418.5" y2="796.021" gradientUnits="userSpaceOnUse">
<stop stop-color="white"/>
<stop offset="1" stop-color="white" stop-opacity="0"/>
</linearGradient>
<linearGradient id="paint4_linear_2_984" x1="418.5" y1="115.072" x2="418.5" y2="796.021" gradientUnits="userSpaceOnUse">
<stop offset="0.733796" stop-color="white" stop-opacity="0"/>
<stop offset="1"/>
</linearGradient>
<linearGradient id="paint5_linear_2_984" x1="588.474" y1="297.13" x2="586.635" y2="297.13" gradientUnits="userSpaceOnUse">
<stop stop-color="#656B74"/>
<stop offset="0.491713" stop-color="#A9ADB5"/>
<stop offset="1" stop-color="white" stop-opacity="0"/>
</linearGradient>
<linearGradient id="paint6_linear_2_984" x1="587.817" y1="272.436" x2="587.817" y2="351.512" gradientUnits="userSpaceOnUse">
<stop offset="0.00552486"/>
<stop offset="0.232044" stop-color="white" stop-opacity="0"/>
<stop offset="0.767956" stop-color="white" stop-opacity="0"/>
<stop offset="1"/>
</linearGradient>
<radialGradient id="paint7_radial_2_984" cx="0" cy="0" r="1" gradientUnits="userSpaceOnUse" gradientTransform="translate(587.817 311.974) rotate(90) scale(39.5381 1.1822)">
<stop stop-color="white"/>
<stop offset="1" stop-color="#343538"/>
</radialGradient>
<linearGradient id="paint8_linear_2_984" x1="248.525" y1="215.226" x2="250.364" y2="215.226" gradientUnits="userSpaceOnUse">
<stop stop-color="#656B74"/>
<stop offset="0.491713" stop-color="#A9ADB5"/>
<stop offset="1" stop-color="white" stop-opacity="0"/>
</linearGradient>
<linearGradient id="paint9_linear_2_984" x1="249.182" y1="207.021" x2="249.182" y2="233.293" gradientUnits="userSpaceOnUse">
<stop offset="0.00552486"/>
<stop offset="0.232044" stop-color="white" stop-opacity="0"/>
<stop offset="0.767956" stop-color="white" stop-opacity="0"/>
<stop offset="1"/>
</linearGradient>
<radialGradient id="paint10_radial_2_984" cx="0" cy="0" r="1" gradientUnits="userSpaceOnUse" gradientTransform="translate(249.182 220.157) rotate(90) scale(13.1356 1.1822)">
<stop stop-color="white"/>
<stop offset="1" stop-color="#343538"/>
</radialGradient>
<linearGradient id="paint11_linear_2_984" x1="248.525" y1="271.589" x2="250.364" y2="271.589" gradientUnits="userSpaceOnUse">
<stop stop-color="#656B74"/>
<stop offset="0.491713" stop-color="#A9ADB5"/>
<stop offset="1" stop-color="white" stop-opacity="0"/>
</linearGradient>
<linearGradient id="paint12_linear_2_984" x1="249.182" y1="256.411" x2="249.182" y2="305.013" gradientUnits="userSpaceOnUse">
<stop offset="0.00552486"/>
<stop offset="0.232044" stop-color="white" stop-opacity="0"/>
<stop offset="0.767956" stop-color="white" stop-opacity="0"/>
<stop offset="1"/>
</linearGradient>
<radialGradient id="paint13_radial_2_984" cx="0" cy="0" r="1" gradientUnits="userSpaceOnUse" gradientTransform="translate(249.182 280.712) rotate(90) scale(24.3008 1.1822)">
<stop stop-color="white"/>
<stop offset="1" stop-color="#343538"/>
</radialGradient>
<linearGradient id="paint14_linear_2_984" x1="248.526" y1="334.379" x2="250.365" y2="334.379" gradientUnits="userSpaceOnUse">
<stop stop-color="#656B74"/>
<stop offset="0.491713" stop-color="#A9ADB5"/>
<stop offset="1" stop-color="white" stop-opacity="0"/>
</linearGradient>
<linearGradient id="paint15_linear_2_984" x1="249.183" y1="319.201" x2="249.183" y2="367.803" gradientUnits="userSpaceOnUse">
<stop offset="0.00552486"/>
<stop offset="0.232044" stop-color="white" stop-opacity="0"/>
<stop offset="0.767956" stop-color="white" stop-opacity="0"/>
<stop offset="1"/>
</linearGradient>
<radialGradient id="paint16_radial_2_984" cx="0" cy="0" r="1" gradientUnits="userSpaceOnUse" gradientTransform="translate(249.183 343.502) rotate(90) scale(24.3008 1.1822)">
<stop stop-color="white"/>
<stop offset="1" stop-color="#343538"/>
</radialGradient>
<linearGradient id="paint17_linear_2_984" x1="554.755" y1="128.208" x2="554.755" y2="170.767" gradientUnits="userSpaceOnUse">
<stop stop-color="white" stop-opacity="0"/>
<stop offset="0.138122" stop-color="white"/>
<stop offset="1" stop-color="white" stop-opacity="0"/>
</linearGradient>
<radialGradient id="paint18_radial_2_984" cx="0" cy="0" r="1" gradientUnits="userSpaceOnUse" gradientTransform="translate(555.104 150.538) rotate(-45.418) scale(26.0039 22.4454)">
<stop offset="0.812155" stop-color="white"/>
<stop offset="1" stop-color="#656B74"/>
</radialGradient>
<linearGradient id="paint19_linear_2_984" x1="555.104" y1="128.733" x2="555.104" y2="178.649" gradientUnits="userSpaceOnUse">
<stop/>
<stop offset="0.40884" stop-color="white" stop-opacity="0"/>
<stop offset="1"/>
</linearGradient>
<linearGradient id="paint20_linear_2_984" x1="282.245" y1="128.208" x2="282.245" y2="170.767" gradientUnits="userSpaceOnUse">
<stop stop-color="white" stop-opacity="0"/>
<stop offset="0.138122" stop-color="white"/>
<stop offset="1" stop-color="white" stop-opacity="0"/>
</linearGradient>
<radialGradient id="paint21_radial_2_984" cx="0" cy="0" r="1" gradientUnits="userSpaceOnUse" gradientTransform="translate(281.896 150.538) rotate(-134.582) scale(26.0039 22.4454)">
<stop offset="0.812155" stop-color="white"/>
<stop offset="1" stop-color="#656B74"/>
</radialGradient>
<linearGradient id="paint22_linear_2_984" x1="281.896" y1="128.733" x2="281.896" y2="178.649" gradientUnits="userSpaceOnUse">
<stop/>
<stop offset="0.40884" stop-color="white" stop-opacity="0"/>
<stop offset="1"/>
</linearGradient>
</defs>
</svg>
