<svg width="48" height="48" viewBox="0 0 48 48" fill="none" xmlns="http://www.w3.org/2000/svg">
<path d="M32.132 17.99C32.2753 17.8517 32.3897 17.6862 32.4684 17.5032C32.5471 17.3203 32.5885 17.1235 32.5904 16.9243C32.5922 16.7251 32.5543 16.5276 32.479 16.3432C32.4037 16.1588 32.2924 15.9913 32.1516 15.8504C32.0108 15.7095 31.8434 15.598 31.6591 15.5225C31.4748 15.447 31.2773 15.409 31.0781 15.4106C30.8789 15.4123 30.6821 15.4535 30.499 15.5321C30.316 15.6106 30.1504 15.7248 30.012 15.868L24 21.878L17.99 15.868C17.8527 15.7206 17.6871 15.6024 17.5031 15.5204C17.3191 15.4384 17.1204 15.3944 16.919 15.3908C16.7176 15.3872 16.5176 15.4243 16.3308 15.4997C16.144 15.5752 15.9744 15.6875 15.8319 15.8299C15.6895 15.9723 15.5772 16.142 15.5017 16.3288C15.4263 16.5156 15.3893 16.7156 15.3928 16.917C15.3964 17.1184 15.4404 17.3171 15.5224 17.5011C15.6044 17.6851 15.7226 17.8507 15.87 17.988L21.876 24L15.866 30.01C15.601 30.2943 15.4568 30.6704 15.4636 31.059C15.4705 31.4476 15.6279 31.8184 15.9028 32.0932C16.1776 32.368 16.5483 32.5255 16.9369 32.5323C17.3256 32.5392 17.7016 32.3949 17.986 32.13L24 26.12L30.01 32.132C30.2943 32.3969 30.6704 32.5412 31.059 32.5343C31.4476 32.5275 31.8184 32.37 32.0932 32.0952C32.3681 31.8204 32.5255 31.4496 32.5323 31.061C32.5392 30.6724 32.395 30.2963 32.13 30.012L26.124 24L32.132 17.99Z" fill="#25007E"/>
</svg>
