<svg width="117" height="29" viewBox="0 0 117 29" fill="none" xmlns="http://www.w3.org/2000/svg">
<path d="M6.125 6.625V12.6511C6.125 16.9934 9.59816 20.5926 13.9403 20.6248C14.9794 20.6327 16.0099 20.4348 16.9722 20.0426C17.9345 19.6504 18.8097 19.0716 19.5473 18.3395C20.2849 17.6075 20.8703 16.7367 21.2698 15.7774C21.6693 14.8181 21.875 13.7892 21.875 12.75V6.625C21.875 6.39294 21.7828 6.17038 21.6187 6.00628C21.4546 5.84219 21.2321 5.75 21 5.75H7C6.76794 5.75 6.54538 5.84219 6.38128 6.00628C6.21719 6.17038 6.125 6.39294 6.125 6.625Z" stroke="#560FD7" stroke-width="2" stroke-linecap="round" stroke-linejoin="round"/>
<path d="M10.5 25H17.5" stroke="#560FD7" stroke-width="2" stroke-linecap="round" stroke-linejoin="round"/>
<path d="M14 20.625V25" stroke="#560FD7" stroke-width="2" stroke-linecap="round" stroke-linejoin="round"/>
<path d="M21.6797 14.5H22.7499C23.6781 14.5 24.5684 14.1313 25.2247 13.4749C25.8811 12.8185 26.2499 11.9283 26.2499 11V9.25C26.2499 9.01794 26.1577 8.79538 25.9936 8.63128C25.8295 8.46719 25.6069 8.375 25.3749 8.375H21.8749" stroke="#560FD7" stroke-width="2" stroke-linecap="round" stroke-linejoin="round"/>
<path d="M6.33809 14.5H5.23438C4.30612 14.5 3.41588 14.1313 2.7595 13.4749C2.10312 12.8185 1.73438 11.9283 1.73438 11V9.25C1.73438 9.01794 1.82656 8.79538 1.99066 8.63128C2.15475 8.46719 2.37731 8.375 2.60938 8.375H6.10938" stroke="#560FD7" stroke-width="2" stroke-linecap="round" stroke-linejoin="round"/>
<path d="M45.2514 17.2557H47.1946L48.5625 19.0391L49.2081 19.8317L51.3878 22.6761H49.3679L47.9105 20.7777L47.4119 20.0874L45.2514 17.2557ZM51.8097 14.9545C51.8097 16.3523 51.554 17.554 51.0426 18.5597C50.5313 19.5611 49.8303 20.3324 48.9396 20.8736C48.0533 21.4105 47.0455 21.679 45.9162 21.679C44.7827 21.679 43.7706 21.4105 42.88 20.8736C41.9936 20.3324 41.2947 19.5589 40.7834 18.5533C40.272 17.5476 40.0163 16.348 40.0163 14.9545C40.0163 13.5568 40.272 12.3572 40.7834 11.3558C41.2947 10.3501 41.9936 9.57883 42.88 9.0419C43.7706 8.50071 44.7827 8.23011 45.9162 8.23011C47.0455 8.23011 48.0533 8.50071 48.9396 9.0419C49.8303 9.57883 50.5313 10.3501 51.0426 11.3558C51.554 12.3572 51.8097 13.5568 51.8097 14.9545ZM49.8537 14.9545C49.8537 13.8892 49.6811 12.9922 49.3359 12.2635C48.995 11.5305 48.5263 10.9766 47.9297 10.6016C47.3374 10.2223 46.6662 10.0327 45.9162 10.0327C45.1619 10.0327 44.4886 10.2223 43.8963 10.6016C43.304 10.9766 42.8352 11.5305 42.4901 12.2635C42.1491 12.9922 41.9787 13.8892 41.9787 14.9545C41.9787 16.0199 42.1491 16.919 42.4901 17.652C42.8352 18.3807 43.304 18.9347 43.8963 19.3139C44.4886 19.6889 45.1619 19.8764 45.9162 19.8764C46.6662 19.8764 47.3374 19.6889 47.9297 19.3139C48.5263 18.9347 48.995 18.3807 49.3359 17.652C49.6811 16.919 49.8537 16.0199 49.8537 14.9545ZM60.3382 17.4283V11.6818H62.2559V21.5H60.3766V19.7997H60.2743C60.0485 20.3239 59.6863 20.7607 59.1877 21.1101C58.6934 21.4553 58.0776 21.6278 57.3404 21.6278C56.7097 21.6278 56.1515 21.4893 55.6657 21.2124C55.1841 20.9311 54.8049 20.5156 54.5279 19.9659C54.2551 19.4162 54.1188 18.7365 54.1188 17.9268V11.6818H56.03V17.6967C56.03 18.3658 56.2154 18.8984 56.5861 19.2947C56.9569 19.6911 57.4384 19.8892 58.0307 19.8892C58.3887 19.8892 58.7445 19.7997 59.0982 19.6207C59.4561 19.4418 59.7523 19.1712 59.9867 18.8089C60.2253 18.4467 60.3425 17.9865 60.3382 17.4283ZM69.0554 21.6982C68.0881 21.6982 67.255 21.4915 66.5561 21.0781C65.8615 20.6605 65.3246 20.0746 64.9453 19.3203C64.5703 18.5618 64.3828 17.6733 64.3828 16.6548C64.3828 15.6491 64.5703 14.7628 64.9453 13.9957C65.3246 13.2287 65.853 12.63 66.5305 12.1996C67.2124 11.7692 68.0092 11.554 68.9212 11.554C69.4751 11.554 70.0121 11.6456 70.532 11.8288C71.0518 12.0121 71.5185 12.2997 71.9318 12.6918C72.3452 13.0838 72.6712 13.593 72.9098 14.2195C73.1484 14.8416 73.2678 15.598 73.2678 16.4886V17.1662H65.4631V15.7344L71.3949 15.7344C71.3949 15.2315 71.2926 14.7862 71.0881 14.3984C70.8835 14.0064 70.5959 13.6974 70.2251 13.4716C69.8587 13.2457 69.4283 13.1328 68.9339 13.1328C68.397 13.1328 67.9283 13.2649 67.5277 13.5291C67.1314 13.7891 66.8246 14.13 66.6072 14.5518C66.3942 14.9695 66.2876 15.4233 66.2876 15.9134V17.032C66.2876 17.6882 66.4027 18.2464 66.6328 18.7067C66.8672 19.1669 67.1932 19.5185 67.6108 19.7614C68.0284 20 68.5163 20.1193 69.0746 20.1193C69.4368 20.1193 69.767 20.0682 70.0653 19.9659C70.3636 19.8594 70.6214 19.7017 70.8388 19.4929C71.0561 19.2841 71.2223 19.0263 71.3374 18.7195L73.1463 19.0455C73.0014 19.5781 72.7415 20.0447 72.3665 20.4453C71.9957 20.8416 71.5291 21.1506 70.9666 21.3722C70.4084 21.5895 69.7713 21.6982 69.0554 21.6982ZM82.7456 14.0788L81.0133 14.3857C80.9409 14.1641 80.8258 13.9531 80.6681 13.7528C80.5147 13.5526 80.3059 13.3885 80.0417 13.2607C79.7775 13.1328 79.4473 13.0689 79.051 13.0689C78.5098 13.0689 78.0581 13.1903 77.6958 13.4332C77.3336 13.6719 77.1525 13.9808 77.1525 14.3601C77.1525 14.6882 77.274 14.9524 77.5169 15.1527C77.7598 15.353 78.1518 15.517 78.693 15.6449L80.2527 16.0028C81.1561 16.2116 81.8294 16.5334 82.2726 16.968C82.7157 17.4027 82.9373 17.9673 82.9373 18.6619C82.9373 19.25 82.7669 19.7741 82.426 20.2344C82.0893 20.6903 81.6184 21.0483 81.0133 21.3082C80.4125 21.5682 79.7157 21.6982 78.9231 21.6982C77.8237 21.6982 76.9267 21.4638 76.2321 20.995C75.5375 20.522 75.1113 19.8509 74.9537 18.9815L76.801 18.7003C76.916 19.1818 77.1525 19.5462 77.5105 19.7933C77.8684 20.0362 78.335 20.1577 78.9103 20.1577C79.5368 20.1577 80.0375 20.0277 80.4125 19.7678C80.7875 19.5036 80.975 19.1818 80.975 18.8026C80.975 18.4957 80.8599 18.2379 80.6298 18.0291C80.4039 17.8203 80.0566 17.6626 79.5879 17.5561L77.926 17.1918C77.0098 16.983 76.3322 16.6506 75.8933 16.1946C75.4586 15.7386 75.2413 15.1612 75.2413 14.4624C75.2413 13.8828 75.4032 13.3757 75.7271 12.9411C76.051 12.5064 76.4984 12.1676 77.0694 11.9247C77.6404 11.6776 78.2946 11.554 79.0318 11.554C80.0929 11.554 80.9281 11.7841 81.5375 12.2443C82.1468 12.7003 82.5495 13.3118 82.7456 14.0788ZM89.6218 11.6818V13.2159H84.2589V11.6818L89.6218 11.6818ZM85.6971 9.32955L87.6083 9.32955V18.6172C87.6083 18.9879 87.6637 19.267 87.7745 19.4545C87.8853 19.6378 88.0281 19.7635 88.2028 19.8317C88.3817 19.8956 88.5756 19.9276 88.7844 19.9276C88.9379 19.9276 89.0721 19.9169 89.1871 19.8956C89.3022 19.8743 89.3917 19.8572 89.4556 19.8445L89.8008 21.4233C89.69 21.4659 89.5323 21.5085 89.3278 21.5511C89.1232 21.598 88.8675 21.6236 88.5607 21.6278C88.0579 21.6364 87.5891 21.5469 87.1545 21.3594C86.7198 21.1719 86.3683 20.8821 86.0998 20.4901C85.8313 20.098 85.6971 19.6058 85.6971 19.0135V9.32955ZM91.736 21.5V11.6818H93.6472V21.5H91.736ZM92.7012 10.1669C92.3688 10.1669 92.0833 10.0561 91.8446 9.83452C91.6103 9.60866 91.4931 9.3402 91.4931 9.02912C91.4931 8.71378 91.6103 8.44531 91.8446 8.22372C92.0833 7.99787 92.3688 7.88494 92.7012 7.88494C93.0336 7.88494 93.3169 7.99787 93.5513 8.22372C93.79 8.44531 93.9093 8.71378 93.9093 9.02912C93.9093 9.3402 93.79 9.60866 93.5513 9.83452C93.3169 10.0561 93.0336 10.1669 92.7012 10.1669ZM100.354 21.6982C99.4336 21.6982 98.6303 21.4872 97.9442 21.0653C97.2582 20.6435 96.7255 20.0533 96.3462 19.2947C95.967 18.5362 95.7773 17.6499 95.7773 16.6357C95.7773 15.6172 95.967 14.7266 96.3462 13.9638C96.7255 13.201 97.2582 12.6087 97.9442 12.1868C98.6303 11.7649 99.4336 11.554 100.354 11.554C101.275 11.554 102.078 11.7649 102.764 12.1868C103.45 12.6087 103.983 13.201 104.362 13.9638C104.741 14.7266 104.931 15.6172 104.931 16.6357C104.931 17.6499 104.741 18.5362 104.362 19.2947C103.983 20.0533 103.45 20.6435 102.764 21.0653C102.078 21.4872 101.275 21.6982 100.354 21.6982ZM100.36 20.0938C100.957 20.0938 101.451 19.9361 101.843 19.6207C102.235 19.3054 102.525 18.8857 102.713 18.3615C102.904 17.8374 103 17.2599 103 16.6293C103 16.0028 102.904 15.4276 102.713 14.9034C102.525 14.375 102.235 13.951 101.843 13.6314C101.451 13.3118 100.957 13.152 100.36 13.152C99.7596 13.152 99.261 13.3118 98.8647 13.6314C98.4727 13.951 98.1808 14.375 97.989 14.9034C97.8015 15.4276 97.7077 16.0028 97.7077 16.6293C97.7077 17.2599 97.8015 17.8374 97.989 18.3615C98.1808 18.8857 98.4727 19.3054 98.8647 19.6207C99.261 19.9361 99.7596 20.0938 100.36 20.0938ZM108.975 15.6705V21.5H107.064V11.6818H108.899V13.2798H109.02C109.246 12.7599 109.6 12.3423 110.081 12.027C110.567 11.7116 111.178 11.554 111.916 11.554C112.585 11.554 113.171 11.6946 113.673 11.9759C114.176 12.2528 114.566 12.6662 114.843 13.2159C115.12 13.7656 115.259 14.4453 115.259 15.255V21.5H113.347V15.4851C113.347 14.7734 113.162 14.2173 112.791 13.8168C112.421 13.4119 111.911 13.2095 111.264 13.2095C110.82 13.2095 110.426 13.3054 110.081 13.4972C109.74 13.6889 109.47 13.9702 109.269 14.3409C109.073 14.7074 108.975 15.1506 108.975 15.6705Z" fill="#4A4A56"/>
</svg>
