<svg width="514" height="418" viewBox="0 0 514 418" fill="none" xmlns="http://www.w3.org/2000/svg">
<path d="M343.635 14.439L375.022 44.7261L406.568 215.46H110.668L343.635 14.439Z" fill="#FFCF2D"/>
<path d="M375.292 44.4881L343.81 14.1058L349.075 8.63508C356.831 0.579653 370.804 1.49937 378.861 9.23766C386.917 16.9918 388.329 30.9619 380.573 39.0174L375.292 44.4881Z" fill="white" stroke="#FFCF2D" stroke-width="6" stroke-miterlimit="10" stroke-linecap="round"/>
<path d="M380.558 39.0175L349.06 8.63525" stroke="#FFCF2D" stroke-width="6" stroke-miterlimit="10" stroke-linecap="round"/>
<path d="M380.589 10.6173L384.11 7.92162C388.836 4.30619 395.625 5.25762 399.161 10.0623L485.693 115.385L441.396 214.16" stroke="#9F76ED" stroke-width="6" stroke-miterlimit="10" stroke-linecap="round"/>
<path d="M484.282 120.761C486.962 120.761 489.135 118.588 489.135 115.908C489.135 113.229 486.962 111.056 484.282 111.056C481.602 111.056 479.429 113.229 479.429 115.908C479.429 118.588 481.602 120.761 484.282 120.761Z" fill="white" stroke="#FFCF2D" stroke-width="6" stroke-miterlimit="10" stroke-linecap="round"/>
<path d="M429.089 203.123H452.736C459.54 203.123 465.044 208.641 465.044 215.428V215.777H416.766V215.428C416.782 208.641 422.285 203.123 429.089 203.123Z" fill="white" stroke="#FFCF2D" stroke-width="6" stroke-miterlimit="10" stroke-linecap="round"/>
<path d="M314.534 179.765H164.831C159.201 179.765 154.649 175.214 154.649 169.585V64.8961C154.649 59.2668 159.201 54.7158 164.831 54.7158H314.534C320.164 54.7158 324.716 59.2668 324.716 64.8961V169.569C324.732 175.198 320.164 179.765 314.534 179.765Z" fill="white" stroke="#9F76ED" stroke-width="6" stroke-miterlimit="10" stroke-linecap="round"/>
<path d="M314.629 170.029H166.37C164.165 170.029 162.389 168.237 162.389 166.049V65.8952C162.389 63.691 164.181 61.915 166.37 61.915H314.629C316.833 61.915 318.61 63.7069 318.61 65.8952V166.033C318.626 168.237 316.833 170.029 314.629 170.029Z" fill="#66B0F0" stroke="#66B0F0" stroke-width="6" stroke-miterlimit="10" stroke-linejoin="round"/>
<path d="M171.683 71.2705H169.335C168.574 71.2705 167.94 70.6521 167.94 69.8751V67.5282C167.94 66.7671 168.558 66.1328 169.335 66.1328H171.683C172.444 66.1328 173.078 66.7512 173.078 67.5282V69.8751C173.062 70.6521 172.444 71.2705 171.683 71.2705Z" stroke="white" stroke-width="6" stroke-miterlimit="10" stroke-linecap="round"/>
<path d="M182.356 71.2705H180.009C179.248 71.2705 178.613 70.6521 178.613 69.8751V67.5282C178.613 66.7671 179.232 66.1328 180.009 66.1328H182.356C183.118 66.1328 183.752 66.7512 183.752 67.5282V69.8751C183.752 70.6521 183.118 71.2705 182.356 71.2705Z" stroke="white" stroke-width="6" stroke-miterlimit="10" stroke-linecap="round"/>
<path d="M193.03 71.2705H190.683C189.922 71.2705 189.287 70.6521 189.287 69.8751V67.5282C189.287 66.7671 189.906 66.1328 190.683 66.1328H193.03C193.791 66.1328 194.426 66.7512 194.426 67.5282V69.8751C194.426 70.6521 193.807 71.2705 193.03 71.2705Z" stroke="white" stroke-width="6" stroke-miterlimit="10" stroke-linecap="round"/>
<path d="M271.283 215.46H213.172L224.576 179.765H259.864L271.283 215.46Z" fill="white" stroke="#9F76ED" stroke-width="6" stroke-miterlimit="10" stroke-linecap="round"/>
<path d="M217.74 201.172L224.576 179.765H259.864L217.74 201.172Z" fill="#9F76ED"/>
<path d="M306.001 94.7553H277.754C275.106 94.7553 272.965 92.6146 272.965 89.9665V71.7308C272.965 69.0826 275.106 66.9419 277.754 66.9419H306.001C308.65 66.9419 310.791 69.0826 310.791 71.7308V89.9665C310.791 92.6146 308.65 94.7553 306.001 94.7553Z" stroke="white" stroke-width="6" stroke-miterlimit="10" stroke-linecap="round"/>
<path d="M281.037 73.4434H302.591" stroke="white" stroke-width="6" stroke-miterlimit="10" stroke-linecap="round"/>
<path d="M281.037 78.3589H302.591" stroke="white" stroke-width="6" stroke-miterlimit="10" stroke-linecap="round"/>
<path d="M281.037 83.2749H302.591" stroke="white" stroke-width="6" stroke-miterlimit="10" stroke-linecap="round"/>
<path d="M281.037 88.1904H302.591" stroke="white" stroke-width="6" stroke-miterlimit="10" stroke-linecap="round"/>
<path d="M313.804 170.029H201.531L194.949 179.464C187.511 190.12 171.794 190.279 164.149 179.766L124.055 124.63C125.736 126.723 133.428 124.392 140.756 119.572C148.194 114.672 152.999 108.504 151.493 106.22L179.295 141.645L187.812 126.612C190.144 122.632 194.013 119.778 198.518 118.731L227.494 112.595H252.473L280.006 118.668C284.796 119.762 288.856 122.886 291.156 127.215L313.804 170.029Z" fill="white" stroke="#9F76ED" stroke-width="6" stroke-miterlimit="10"/>
<path d="M282.988 169.379L275.01 153.633" stroke="#9F76ED" stroke-width="6" stroke-miterlimit="10" stroke-linecap="round"/>
<path d="M200.897 170.854L208.795 155.266" stroke="#9F76ED" stroke-width="6" stroke-miterlimit="10" stroke-linecap="round"/>
<path d="M168.479 127.897L186.575 151.033" stroke="#9F76ED" stroke-width="6" stroke-miterlimit="10" stroke-linecap="round"/>
<path d="M243.1 120.206L249.761 128.309L264.67 115.655" stroke="#9F76ED" stroke-width="6" stroke-miterlimit="10" stroke-linecap="round"/>
<path d="M238.009 120.365L231.538 128.626L215.155 115.655" stroke="#9F76ED" stroke-width="6" stroke-miterlimit="10" stroke-linecap="round"/>
<path d="M157.012 113.309C158.519 115.608 153.697 121.856 146.211 126.819C138.852 131.703 131.049 134.05 129.352 131.941" stroke="#9F76ED" stroke-width="6" stroke-miterlimit="10" stroke-linecap="round"/>
<path d="M152.032 117.32C153.022 117.32 153.824 116.518 153.824 115.528C153.824 114.539 153.022 113.736 152.032 113.736C151.042 113.736 150.24 114.539 150.24 115.528C150.24 116.518 151.042 117.32 152.032 117.32Z" stroke="#9F76ED" stroke-width="6" stroke-miterlimit="10" stroke-linecap="round"/>
<path d="M240.531 128.579C241.521 128.579 242.323 127.777 242.323 126.787C242.323 125.797 241.521 124.995 240.531 124.995C239.541 124.995 238.739 125.797 238.739 126.787C238.739 127.777 239.541 128.579 240.531 128.579Z" stroke="#9F76ED" stroke-width="6" stroke-miterlimit="10" stroke-linecap="round"/>
<path d="M240.531 143.009C241.521 143.009 242.323 142.207 242.323 141.217C242.323 140.228 241.521 139.425 240.531 139.425C239.541 139.425 238.739 140.228 238.739 141.217C238.739 142.207 239.541 143.009 240.531 143.009Z" stroke="#9F76ED" stroke-width="6" stroke-miterlimit="10" stroke-linecap="round"/>
<path d="M194.378 180.225L201.531 170.029V180.225H194.378Z" fill="#9F76ED"/>
<path d="M140.581 119.096C133.254 123.916 125.562 126.247 123.881 124.154C123.849 124.123 123.833 124.091 123.801 124.043C123.452 123.52 123.484 122.806 123.801 121.934C124.896 119.064 129.416 114.624 135.157 110.85C139.725 107.837 144.229 105.744 147.353 105.094C149.161 104.729 150.509 104.84 151.16 105.538L151.318 105.728C152.809 108.012 148.019 114.196 140.581 119.096Z" fill="#FE5244"/>
<path d="M140.581 119.096C136.41 121.839 132.112 123.79 128.876 124.551L114.396 104.127C112.382 101.273 113.048 97.3241 115.919 95.3103L128.956 86.1448L121.565 73.5701C120.486 71.7465 121.105 69.3838 122.945 68.3214C123.547 67.9725 124.198 67.814 124.848 67.814C126.101 67.814 127.338 68.4324 128.068 69.5741L151.176 105.506L151.334 105.76C152.809 108.012 148.019 114.196 140.581 119.096Z" fill="#E57281"/>
<path d="M128.924 86.2876L136.997 98.7989C137.742 99.9723 137.409 101.526 136.235 102.287L134.443 103.461C133.27 104.238 131.684 103.905 130.922 102.731L123.294 91.3143" stroke="#9A3B82" stroke-width="6" stroke-miterlimit="10" stroke-linecap="round"/>
<path d="M130.891 102.7C131.668 103.889 131.319 105.491 130.129 106.252L128.496 107.282C127.322 108.028 125.768 107.695 125.007 106.537" stroke="#9A3B82" stroke-width="6" stroke-miterlimit="10" stroke-linecap="round"/>
<path d="M117.505 95.3418L124.975 106.442C125.752 107.631 125.419 109.233 124.198 109.994L122.675 110.834C121.533 111.564 120.026 111.262 119.233 110.152L114.904 104.047" stroke="#9A3B82" stroke-width="6" stroke-miterlimit="10" stroke-linecap="round"/>
<path d="M145.783 97.1339L141.993 91.2509C140.74 89.3005 138.123 88.7613 136.204 90.0616L126.799 96.4362C126.799 96.4362 129.527 101.336 136.156 97.451L138.377 100.987C133.841 103.857 132.54 109.899 135.49 114.386L145.783 97.1339Z" fill="#E57281"/>
<path d="M145.291 97.2926L141.501 91.4096C140.248 89.4592 137.631 88.92 135.712 90.2203L126.799 96.4363C126.799 96.4363 129.527 101.336 136.156 97.4511L138.377 100.987C133.841 103.857 132.54 109.899 135.49 114.387" stroke="#9A3B82" stroke-width="6" stroke-miterlimit="10" stroke-linecap="round"/>
<path d="M140.581 119.096C136.41 121.839 132.112 123.79 128.876 124.551L125.276 119.477C127.29 116.844 130.891 113.673 135.157 110.866C139.725 107.853 144.229 105.76 147.353 105.11C149.161 104.745 150.509 104.856 151.16 105.554L151.318 105.744C151.334 105.776 151.35 105.792 151.366 105.824C151.382 105.84 151.382 105.855 151.398 105.887C151.413 105.919 151.429 105.935 151.445 105.966C152.524 108.393 147.781 114.339 140.581 119.096Z" fill="#9A3B82"/>
<path d="M252.458 98.6401V112.579C252.458 116.622 246.843 119.889 239.944 119.889C233.029 119.889 227.431 116.622 227.431 112.579V98.6401H252.458Z" fill="#E57281"/>
<path d="M231.094 117.748C228.826 116.432 227.415 114.592 227.415 112.579V98.6401H252.458V102.509C252.458 106.521 250.015 110.121 246.304 111.627L231.094 117.748Z" fill="#9A3B82"/>
<path d="M259.436 97.8158V98.0536C259.436 100.464 257.485 102.414 255.074 102.414H252.204C251.236 106.315 247.715 109.217 243.497 109.217H236.391C232.188 109.217 228.652 106.331 227.7 102.414H224.829C222.419 102.414 220.468 100.464 220.468 98.0536V97.8158C220.468 95.4055 222.419 93.4551 224.829 93.4551H227.43V90.0141C227.43 86.3352 230.142 83.2906 233.679 82.7832C234.456 84.0835 236.804 87.1915 241.593 87.0171C243.846 86.9378 245.939 86.5096 247.668 86.0022C249.745 85.3996 251.823 86.6682 252.346 88.6503C252.426 89.0943 252.473 89.5383 252.473 89.9982V93.4392H255.074C257.469 93.4392 259.436 95.4055 259.436 97.8158Z" fill="#E57281"/>
<path d="M254.456 93.4391H252.458V89.6176C252.458 89.2846 252.41 88.9516 252.331 88.6503C251.807 86.6681 249.73 85.3996 247.652 86.0021C245.923 86.5096 243.846 86.9377 241.578 87.017C236.788 87.1914 234.441 84.0834 233.663 82.7831C230.127 83.2906 227.415 86.3351 227.415 90.014V93.455H224.925C224.925 93.455 222.07 83.132 224.211 80.2143C226.32 77.3441 228.858 78.5969 228.858 78.5969C228.858 78.5969 227.335 70.0023 235.836 70.1609C244.321 70.3194 255.36 80.1667 256.169 81.9744C257.438 84.7494 254.456 93.4391 254.456 93.4391Z" fill="#9A3B82"/>
<path d="M253.425 98.6244C253.425 96.9277 254.805 95.564 256.486 95.564" stroke="#9A3B82" stroke-width="5" stroke-miterlimit="10" stroke-linecap="round"/>
<path d="M226.495 98.6244C226.495 96.9277 225.115 95.564 223.434 95.564" stroke="#9A3B82" stroke-width="5" stroke-miterlimit="10" stroke-linecap="round"/>
<path d="M248.461 90.0139C248.461 90.0139 246.209 88.3648 243.338 89.5541" stroke="#9A3B82" stroke-width="5" stroke-miterlimit="10" stroke-linecap="round"/>
<path d="M231.269 90.0139C231.269 90.0139 233.521 88.3648 236.391 89.5541" stroke="#9A3B82" stroke-width="5" stroke-miterlimit="10" stroke-linecap="round"/>
<path d="M243.893 101.716C243.893 101.716 242.672 104.349 238.929 102.969" stroke="#9A3B82" stroke-width="5" stroke-miterlimit="10" stroke-linecap="round"/>
<path d="M238.755 100.353C239.722 100.416 241.197 100.353 241.197 100.353" stroke="#9A3B82" stroke-width="5" stroke-miterlimit="10" stroke-linecap="round"/>
<path d="M245.907 96.6264C246.345 96.6264 246.7 96.03 246.7 95.2944C246.7 94.5588 246.345 93.9624 245.907 93.9624C245.469 93.9624 245.114 94.5588 245.114 95.2944C245.114 96.03 245.469 96.6264 245.907 96.6264Z" fill="#9A3B82"/>
<path d="M234.536 96.6264C234.974 96.6264 235.329 96.03 235.329 95.2944C235.329 94.5588 234.974 93.9624 234.536 93.9624C234.098 93.9624 233.743 94.5588 233.743 95.2944C233.743 96.03 234.098 96.6264 234.536 96.6264Z" fill="#9A3B82"/>
<path d="M236.423 99.7819H231.427C230.46 99.7819 229.682 99.0049 229.682 98.0376V93.0426C229.682 92.0753 230.46 91.2983 231.427 91.2983H236.423C237.39 91.2983 238.168 92.0753 238.168 93.0426V98.0376C238.183 98.989 237.39 99.7819 236.423 99.7819Z" stroke="white" stroke-width="5" stroke-miterlimit="10"/>
<path d="M248.651 99.7819H243.655C242.688 99.7819 241.911 99.0049 241.911 98.0376V93.0426C241.911 92.0753 242.688 91.2983 243.655 91.2983H248.651C249.618 91.2983 250.396 92.0753 250.396 93.0426V98.0376C250.396 98.989 249.618 99.7819 248.651 99.7819Z" stroke="white" stroke-width="5" stroke-miterlimit="10"/>
<path d="M238.183 94.5967H241.911" stroke="white" stroke-width="5" stroke-miterlimit="10"/>
<path d="M249.967 163.877H232.633C231.062 163.877 229.778 162.608 229.778 161.022V151.809C229.778 150.24 231.047 148.955 232.633 148.955H249.967C251.538 148.955 252.822 150.224 252.822 151.809V161.022C252.822 162.592 251.553 163.877 249.967 163.877Z" stroke="#66B0F0" stroke-width="6" stroke-miterlimit="10" stroke-linejoin="round"/>
<path d="M241.736 160.166H235.868C234.932 160.166 234.171 159.405 234.171 158.469V154.362C234.171 153.427 234.932 152.666 235.868 152.666H241.736C242.672 152.666 243.433 153.427 243.433 154.362V158.469C243.433 159.405 242.672 160.166 241.736 160.166Z" fill="#66B0F0"/>
<path d="M247.446 160.055L245.638 158.85C245.146 158.517 244.845 157.946 244.845 157.327V155.52C244.845 154.901 245.146 154.33 245.638 153.997L247.446 152.792C247.874 152.507 248.429 152.824 248.429 153.363V159.5C248.445 160.023 247.874 160.34 247.446 160.055Z" fill="#66B0F0"/>
<path d="M481.809 215.777H60.7734" stroke="#9F76ED" stroke-width="6" stroke-miterlimit="10" stroke-linecap="round"/>
<path d="M196.329 218.552V414.324H185.274V377.06C185.274 373.587 182.451 370.764 178.978 370.764H99.8524C96.3791 370.764 93.556 373.587 93.556 377.06V414.324H82.5016V218.552H196.329Z" fill="white" stroke="#9F76ED" stroke-width="6" stroke-miterlimit="10" stroke-linecap="round"/>
<path d="M196.662 218.552V270.5L82.5016 364.485L82.5175 218.552H196.662Z" fill="#D0F0E4"/>
<path d="M185.274 233.457V268.962C185.274 272.26 182.61 274.924 179.311 274.924H99.5353C96.2364 274.924 93.5719 272.26 93.5719 268.962V233.457C93.5719 230.159 96.2364 227.495 99.5353 227.495H179.311C182.61 227.495 185.274 230.159 185.274 233.457Z" stroke="#9F76ED" stroke-width="6" stroke-miterlimit="10" stroke-linecap="round"/>
<path d="M159.708 301.817H120.439L118.805 290.575H158.09L159.708 301.817Z" fill="#FFCF2D"/>
<path d="M180.659 284.089C175.758 284.089 171.793 288.054 171.793 292.953V301.818H138.376V292.953C138.376 288.054 142.341 284.089 147.242 284.089H180.659Z" fill="white" stroke="#9F76ED" stroke-width="6" stroke-miterlimit="10" stroke-linecap="round"/>
<path d="M188.986 290.575H155.569C154.538 286.833 151.096 284.089 147.02 284.089H180.437C184.513 284.089 187.939 286.833 188.986 290.575Z" fill="white" stroke="#9F76ED" stroke-width="6" stroke-miterlimit="10" stroke-linecap="round"/>
<path d="M185.274 307.78V343.284C185.274 346.582 182.61 349.246 179.311 349.246H99.5353C96.2364 349.246 93.5719 346.582 93.5719 343.284V307.78C93.5719 304.481 96.2364 301.817 99.5353 301.817H179.311C182.61 301.817 185.274 304.481 185.274 307.78Z" stroke="#9F76ED" stroke-width="6" stroke-miterlimit="10" stroke-linecap="round"/>
<path d="M123.087 250.504C123.087 247.681 125.371 245.382 128.21 245.382H150.652C153.475 245.382 155.775 247.665 155.775 250.504" stroke="#9F76ED" stroke-width="6" stroke-miterlimit="10" stroke-linecap="round"/>
<path d="M123.087 324.826C123.087 322.004 125.371 319.705 128.21 319.705H150.652C153.475 319.705 155.775 321.988 155.775 324.826" stroke="#9F76ED" stroke-width="6" stroke-miterlimit="10" stroke-linecap="round"/>
<path d="M465.045 218.552H453.261V414.752H465.045V218.552Z" fill="white" stroke="#9F76ED" stroke-width="6" stroke-miterlimit="10" stroke-linecap="round"/>
<path d="M264.781 414.752H510.706" stroke="#9F76ED" stroke-width="6" stroke-miterlimit="10" stroke-linecap="round"/>
<path d="M115.965 188.867H108.844C108.844 188.867 98.6779 146.513 89.7488 145.133C80.8196 143.754 80.3596 160.055 80.3596 160.055C80.3596 160.055 80.5182 135.27 102.833 138.663C125.164 142.057 115.965 188.867 115.965 188.867Z" fill="white" stroke="#9F76ED" stroke-width="6" stroke-miterlimit="10" stroke-linecap="round"/>
<path d="M91.5728 139.742C91.5728 139.742 111.921 132.226 112.841 188.233" stroke="#9F76ED" stroke-width="6" stroke-miterlimit="10" stroke-linecap="round"/>
<path d="M135.362 188.233H101.913V215.46H135.362V188.233Z" fill="#FE5244"/>
<path d="M142.404 201.854C140.279 202.774 137.741 202.663 135.378 201.632C133.633 200.871 131.984 199.618 130.652 197.906C128.812 195.527 127.575 192.276 127.575 188.233C127.575 178.433 119.772 172.28 116.568 185.252C116.346 186.155 116.14 187.139 115.965 188.233V188.201V188.138C115.965 188.106 115.965 188.058 115.981 188.011V187.947C116.045 187.139 116.283 184.744 117.012 181.858C117.551 179.717 118.36 177.339 119.566 175.135C120.168 174.041 120.866 172.994 121.691 172.058C123.816 169.616 126.734 167.904 130.715 167.904C138.042 167.904 143.403 176.53 145.449 185.125C147.241 192.593 146.512 200.062 142.404 201.854Z" fill="white" stroke="#9F76ED" stroke-width="6" stroke-miterlimit="10" stroke-linecap="round"/>
<path d="M121.707 172.059C121.707 172.059 136.393 161.609 140.707 202.155" stroke="#9F76ED" stroke-width="6" stroke-miterlimit="10" stroke-linecap="round"/>
<path d="M79.8839 160.054C79.8839 162.671 79.5825 172.677 89.1303 173.137C98.678 173.596 99.6296 159.182 99.6296 159.182C99.6296 159.182 94.935 146.433 89.7488 145.133C80.9782 142.929 79.8839 160.054 79.8839 160.054Z" fill="#9F76ED"/>
<path d="M127.575 188.233H115.965C118.646 171.44 127.575 177.751 127.575 188.233Z" fill="#9F76ED"/>
<path opacity="0.4" d="M324.73 64.8961V169.569C324.73 175.198 320.163 179.749 314.548 179.749H194.726C187.208 190.104 171.713 190.152 164.132 179.749L164.116 179.734C161.103 179.527 158.438 177.989 156.725 175.722L159.485 173.343L229.903 112.579L296.959 54.7158H314.548C320.163 54.7158 324.73 59.2827 324.73 64.8961Z" fill="white"/>
<path opacity="0.4" d="M142.404 202.33C140.294 203.281 137.741 203.139 135.378 202.108V215.46H110.684L130.667 198.223L135.393 194.148L138.994 191.04L145.956 185.125C147.986 193.783 146.86 200.284 142.404 202.33Z" fill="white"/>
<path d="M12.4342 69.6217C12.2439 69.6217 12.0536 69.4949 11.9902 69.3046C11.9109 69.0509 12.0377 68.7813 12.2756 68.702L13.7665 68.1787C14.0202 68.0994 14.2899 68.2263 14.3692 68.4642C14.4485 68.7179 14.3216 68.9874 14.0837 69.0667L12.5928 69.59C12.5294 69.6059 12.4818 69.6217 12.4342 69.6217ZM16.1772 68.3214C15.9869 68.3214 15.7966 68.1946 15.7331 68.0043C15.6538 67.7506 15.7807 67.481 16.0186 67.4017L17.5094 66.8784C17.7632 66.7992 18.0328 66.926 18.1121 67.1639C18.1914 67.4176 18.0645 67.6872 17.8266 67.7664L16.3358 68.2897C16.2882 68.3056 16.2248 68.3214 16.1772 68.3214ZM19.9202 67.0053C19.7298 67.0053 19.5395 66.8784 19.4761 66.6882C19.3968 66.4344 19.5237 66.1649 19.7616 66.0856L21.2524 65.5623C21.5062 65.483 21.7758 65.6099 21.8551 65.8477C21.9344 66.1014 21.8075 66.371 21.5696 66.4503L20.0788 66.9736C20.0312 67.0053 19.9677 67.0053 19.9202 67.0053ZM23.6631 65.705C23.4728 65.705 23.2825 65.5782 23.219 65.3879C23.1397 65.1342 23.2666 64.8646 23.5045 64.7853L24.9954 64.262C25.2491 64.1827 25.5187 64.3096 25.598 64.5474C25.6773 64.8012 25.5505 65.0707 25.3126 65.15L23.8217 65.6733C23.7741 65.705 23.7265 65.705 23.6631 65.705ZM27.4061 64.4047C27.2158 64.4047 27.0254 64.2779 26.962 64.0876C26.8827 63.8339 27.0096 63.5643 27.2475 63.485L28.7383 62.9617C28.9921 62.8824 29.2617 63.0093 29.341 63.2472C29.4203 63.5009 29.2934 63.7704 29.0555 63.8497L27.5647 64.373C27.5171 64.4047 27.4695 64.4047 27.4061 64.4047ZM31.1649 63.1044C30.9746 63.1044 30.7842 62.9776 30.7208 62.7873C30.6415 62.5336 30.7684 62.264 31.0063 62.1847L32.4971 61.6614C32.7509 61.5822 33.0205 61.709 33.0998 61.9469C33.1791 62.2006 33.0522 62.4702 32.8143 62.5494L31.3235 63.0727C31.2601 63.1044 31.2125 63.1044 31.1649 63.1044ZM34.9079 61.8042C34.7175 61.8042 34.5272 61.6773 34.4638 61.487C34.3845 61.2333 34.5114 60.9637 34.7493 60.8844L36.2401 60.3612C36.4939 60.2819 36.7635 60.4087 36.8428 60.6466C36.9221 60.9003 36.7952 61.1699 36.5573 61.2492L35.0665 61.7724C35.003 61.7883 34.9554 61.8042 34.9079 61.8042ZM38.6508 60.5039C38.4605 60.5039 38.2702 60.377 38.2067 60.1867C38.1274 59.933 38.2543 59.6634 38.4922 59.5842L39.9831 59.0609C40.2368 58.9816 40.5064 59.1084 40.5857 59.3463C40.665 59.6 40.5382 59.8696 40.3003 59.9489L38.8094 60.4722C38.746 60.488 38.6984 60.5039 38.6508 60.5039ZM42.3938 59.2036C42.2035 59.2036 42.0131 59.0767 41.9497 58.8864C41.8704 58.6327 41.9973 58.3632 42.2352 58.2839L43.726 57.7606C43.9798 57.6813 44.2494 57.8082 44.3287 58.046C44.408 58.2997 44.2811 58.5693 44.0432 58.6486L42.5524 59.1719C42.5048 59.1877 42.4414 59.2036 42.3938 59.2036ZM46.1367 57.9033C45.9464 57.9033 45.7561 57.7764 45.6926 57.5862C45.6133 57.3324 45.7402 57.0629 45.9781 56.9836L47.469 56.4603C47.7227 56.381 47.9924 56.5079 48.0717 56.7457C48.151 56.9994 48.0241 57.269 47.7862 57.3483L46.2953 57.8716C46.2478 57.8874 46.1843 57.9033 46.1367 57.9033ZM49.8797 56.603C49.6894 56.603 49.499 56.4762 49.4356 56.2859C49.3563 56.0322 49.4832 55.7626 49.7211 55.6833L51.2119 55.16C51.4657 55.0807 51.7353 55.2076 51.8146 55.4454C51.8939 55.6992 51.767 55.9687 51.5291 56.048L50.0383 56.5713C49.9907 56.5872 49.9273 56.603 49.8797 56.603ZM53.6227 55.2869C53.4323 55.2869 53.242 55.16 53.1786 54.9697C53.0993 54.716 53.2262 54.4464 53.4641 54.3672L54.9549 53.8439C55.2087 53.7646 55.4783 53.8914 55.5576 54.1293C55.6369 54.383 55.51 54.6526 55.2721 54.7319L53.7812 55.2552C53.7337 55.2869 53.6861 55.2869 53.6227 55.2869ZM57.3656 53.9866C57.1753 53.9866 56.985 53.8597 56.9215 53.6694C56.8422 53.4157 56.9691 53.1462 57.207 53.0669L58.6978 52.5436C58.9516 52.4643 59.2212 52.5912 59.3005 52.829C59.3798 53.0827 59.2529 53.3523 59.015 53.4316L57.5242 53.9549C57.4766 53.9866 57.429 53.9866 57.3656 53.9866ZM61.1244 52.6863C60.9341 52.6863 60.7438 52.5594 60.6803 52.3692C60.601 52.1154 60.7279 51.8459 60.9658 51.7666L62.4567 51.2433C62.7104 51.164 62.98 51.2909 63.0593 51.5287C63.1386 51.7824 63.0118 52.052 62.7739 52.1313L61.283 52.6546C61.2196 52.6863 61.172 52.6863 61.1244 52.6863ZM64.8674 51.386C64.6771 51.386 64.4867 51.2592 64.4233 51.0689C64.344 50.8152 64.4709 50.5456 64.7088 50.4663L66.1996 49.943C66.4534 49.8637 66.723 49.9906 66.8023 50.2284C66.8816 50.4822 66.7547 50.7517 66.5168 50.831L65.026 51.3543C64.9626 51.386 64.915 51.386 64.8674 51.386ZM68.6103 50.0857C68.42 50.0857 68.2297 49.9589 68.1663 49.7686C68.087 49.5149 68.2138 49.2453 68.4517 49.166L69.9426 48.6427C70.1964 48.5634 70.466 48.6903 70.5453 48.9282C70.6246 49.1819 70.4977 49.4514 70.2598 49.5307L68.7689 50.054C68.7055 50.0857 68.6579 50.0857 68.6103 50.0857ZM72.3533 48.7854C72.163 48.7854 71.9727 48.6586 71.9092 48.4683C71.8299 48.2146 71.9568 47.945 72.1947 47.8657L73.6855 47.3424C73.9393 47.2632 74.2089 47.39 74.2882 47.6279C74.3675 47.8816 74.2406 48.1511 74.0027 48.2304L72.5119 48.7537C72.4643 48.7696 72.4009 48.7854 72.3533 48.7854ZM76.0963 47.4852C75.906 47.4852 75.7156 47.3583 75.6522 47.168C75.5729 46.9143 75.6998 46.6447 75.9377 46.5654L77.4285 46.0422C77.6823 45.9629 77.9519 46.0897 78.0312 46.3276C78.1105 46.5813 77.9836 46.8509 77.7457 46.9302L76.2549 47.4534C76.2073 47.4693 76.1439 47.4852 76.0963 47.4852Z" fill="#FFCF2D"/>
<path d="M29.3093 69.6218C29.0397 69.6218 28.8335 69.4157 28.8335 69.1461C28.8335 64.8488 27.5012 61.725 24.8526 59.8855C22.8701 58.506 20.8559 58.3791 20.84 58.3791C20.5704 58.3633 20.3801 58.1413 20.3959 57.8717C20.4118 57.6021 20.6338 57.4118 20.8876 57.4277C20.9828 57.4277 23.1556 57.5545 25.3601 59.0768C29.0238 61.614 29.7851 65.9588 29.7851 69.1461C29.7851 69.3998 29.5789 69.6218 29.3093 69.6218Z" fill="#9F76ED"/>
<path d="M105.088 69.6218H12.4342C12.2597 69.6218 12.0853 69.5266 12.006 69.3522C11.9267 69.1936 11.9425 69.0034 12.0536 68.8606L49.7052 18.6728C49.7845 18.5618 49.9114 18.4984 50.0383 18.4825C50.1651 18.4666 50.3079 18.5142 50.403 18.6094L105.421 68.7972C105.564 68.9241 105.612 69.1302 105.548 69.3205C105.469 69.4949 105.295 69.6218 105.088 69.6218ZM13.3858 68.6704H103.867L50.1493 19.6559L13.3858 68.6704Z" fill="#9F76ED"/>
<path d="M4.10774 72.9201C1.83976 72.9201 0 71.0806 0 68.8131C0 66.5455 1.83976 64.7061 4.10774 64.7061C6.37572 64.7061 8.21548 66.5455 8.21548 68.8131C8.21548 71.0806 6.37572 72.9201 4.10774 72.9201ZM4.10774 65.6416C2.36314 65.6416 0.9516 67.0529 0.9516 68.7972C0.9516 70.5415 2.36314 71.9528 4.10774 71.9528C5.85234 71.9528 7.26388 70.5415 7.26388 68.7972C7.26388 67.0529 5.85234 65.6416 4.10774 65.6416Z" fill="#FFCF2D"/>
<path d="M8.21552 68.813H7.26392V72.4443H8.21552V68.813Z" fill="#FFCF2D"/>
<path d="M52.8931 15.549C50.6252 15.549 48.7854 13.7095 48.7854 11.442C48.7854 9.17439 50.6252 7.33496 52.8931 7.33496C55.1611 7.33496 57.0009 9.17439 57.0009 11.442C57.0009 13.6937 55.1611 15.549 52.8931 15.549ZM52.8931 8.27053C51.1485 8.27053 49.737 9.68182 49.737 11.4261C49.737 13.1704 51.1485 14.5975 52.8931 14.5975C54.6377 14.5975 56.0493 13.1862 56.0493 11.442C56.0493 9.69767 54.6377 8.27053 52.8931 8.27053Z" fill="#FFCF2D"/>
<path d="M49.7053 5.08301H48.7537V15.0572H49.7053V5.08301Z" fill="#FFCF2D"/>
<path d="M112.495 72.8248C110.227 72.8248 108.387 70.9854 108.387 68.7178C108.387 66.4503 110.227 64.6108 112.495 64.6108V65.5623C110.75 65.5623 109.339 66.9735 109.339 68.7178C109.339 70.4621 110.75 71.8734 112.495 71.8734V72.8248Z" fill="#FFCF2D"/>
<path d="M352.692 272.783V361.044H332.296L319.307 324.779L300.703 272.783H352.692Z" fill="#A0505A"/>
<path d="M300.703 272.783H352.692V301.12L306.888 290.052L300.703 272.783Z" fill="#73325A"/>
<path d="M352.692 324.779V361.044H332.296L319.307 324.779C319.307 324.779 329.822 330.583 352.692 324.779Z" stroke="white" stroke-width="6" stroke-miterlimit="10" stroke-linecap="round"/>
<path d="M329.917 333.294C331.196 333.294 332.232 332.257 332.232 330.979C332.232 329.7 331.196 328.664 329.917 328.664C328.638 328.664 327.601 329.7 327.601 330.979C327.601 332.257 328.638 333.294 329.917 333.294Z" stroke="white" stroke-width="6" stroke-miterlimit="10" stroke-linecap="round"/>
<path d="M340.955 340.763C342.234 340.763 343.271 339.726 343.271 338.447C343.271 337.169 342.234 336.132 340.955 336.132C339.677 336.132 338.64 337.169 338.64 338.447C338.64 339.726 339.677 340.763 340.955 340.763Z" stroke="white" stroke-width="6" stroke-miterlimit="10" stroke-linecap="round"/>
<path d="M349.171 332.47C350.45 332.47 351.486 331.433 351.486 330.155C351.486 328.876 350.45 327.839 349.171 327.839C347.892 327.839 346.855 328.876 346.855 330.155C346.855 331.433 347.892 332.47 349.171 332.47Z" stroke="white" stroke-width="6" stroke-miterlimit="10" stroke-linecap="round"/>
<path d="M345.92 349.453C347.198 349.453 348.235 348.416 348.235 347.137C348.235 345.859 347.198 344.822 345.92 344.822C344.641 344.822 343.604 345.859 343.604 347.137C343.604 348.416 344.641 349.453 345.92 349.453Z" stroke="white" stroke-width="6" stroke-miterlimit="10" stroke-linecap="round"/>
<path d="M332.232 345.234C333.511 345.234 334.548 344.198 334.548 342.919C334.548 341.641 333.511 340.604 332.232 340.604C330.954 340.604 329.917 341.641 329.917 342.919C329.917 344.198 330.954 345.234 332.232 345.234Z" stroke="white" stroke-width="6" stroke-miterlimit="10" stroke-linecap="round"/>
<path d="M336.007 357.92C337.286 357.92 338.323 356.884 338.323 355.605C338.323 354.327 337.286 353.29 336.007 353.29C334.728 353.29 333.692 354.327 333.692 355.605C333.692 356.884 334.728 357.92 336.007 357.92Z" stroke="white" stroke-width="6" stroke-miterlimit="10" stroke-linecap="round"/>
<path d="M362.335 377.504L348.346 406.538C346.364 411.216 341.78 414.261 336.689 414.261H318.847C314.279 414.261 311.503 409.631 313.248 405.413L331.186 362.154C332.185 359.522 333.945 357.334 336.15 355.796C338.37 354.257 341.035 353.385 343.842 353.385C347.744 353.385 351.613 356.033 354.183 358.967L360.4 365.675C363.27 368.941 364.016 373.524 362.335 377.504Z" fill="#66B0F0"/>
<path d="M362.335 377.504L348.346 406.539C346.364 411.216 341.78 414.261 336.689 414.261H317.721C315.96 414.261 314.961 413.167 314.374 411.66H318.593C323.684 411.66 328.267 408.616 330.25 403.938L346.38 370.305C347.886 367.165 351.074 365.151 354.563 365.151C359.115 365.151 362.573 368.481 363.207 372.699C363.27 374.317 362.985 375.95 362.335 377.504Z" fill="white" stroke="#66B0F0" stroke-width="6" stroke-miterlimit="10" stroke-linejoin="round"/>
<path d="M359.115 364.279C357.434 363.36 355.404 362.694 353.628 362.694C350.218 362.694 347.062 364.676 345.587 367.752L328.886 402.574C326.761 407.601 321.844 410.852 316.372 410.852H313.296C313.137 410.55 313.026 410.233 312.915 409.9H316.372C321.464 409.9 326.031 406.872 328.014 402.194L328.03 402.178L344.746 367.34C346.38 363.93 349.869 361.742 353.643 361.742C354.849 361.742 356.292 362.139 357.529 362.567L359.115 364.279Z" fill="white"/>
<path d="M300.703 272.783L296.722 324.779L294.946 348.073C294.946 348.073 283.352 360.981 270.156 353.021L264.05 324.795L250.078 260.209C246.303 242.75 258.23 225.767 275.945 223.404L300.703 272.783Z" fill="#A0505A"/>
<path d="M296.722 324.779L294.946 348.707C294.946 348.707 283.352 361.615 270.156 353.655L264.05 324.795C279.387 329.393 296.722 324.779 296.722 324.779Z" stroke="white" stroke-width="6" stroke-miterlimit="10" stroke-linecap="round"/>
<path d="M278.499 339.161C279.778 339.161 280.814 338.124 280.814 336.846C280.814 335.567 279.778 334.531 278.499 334.531C277.22 334.531 276.183 335.567 276.183 336.846C276.183 338.124 277.22 339.161 278.499 339.161Z" stroke="white" stroke-width="6" stroke-miterlimit="10" stroke-linecap="round"/>
<path d="M293.217 335.609C294.496 335.609 295.532 334.573 295.532 333.294C295.532 332.016 294.496 330.979 293.217 330.979C291.938 330.979 290.901 332.016 290.901 333.294C290.901 334.573 291.938 335.609 293.217 335.609Z" stroke="white" stroke-width="6" stroke-miterlimit="10" stroke-linecap="round"/>
<path d="M269.617 332.47C270.896 332.47 271.933 331.433 271.933 330.155C271.933 328.876 270.896 327.839 269.617 327.839C268.338 327.839 267.302 328.876 267.302 330.155C267.302 331.433 268.338 332.47 269.617 332.47Z" stroke="white" stroke-width="6" stroke-miterlimit="10" stroke-linecap="round"/>
<path d="M276.183 351.767C277.462 351.767 278.499 350.731 278.499 349.452C278.499 348.174 277.462 347.137 276.183 347.137C274.904 347.137 273.868 348.174 273.868 349.452C273.868 350.731 274.904 351.767 276.183 351.767Z" stroke="white" stroke-width="6" stroke-miterlimit="10" stroke-linecap="round"/>
<path d="M286.984 347.137C288.263 347.137 289.299 346.101 289.299 344.822C289.299 343.543 288.263 342.507 286.984 342.507C285.705 342.507 284.668 343.543 284.668 344.822C284.668 346.101 285.705 347.137 286.984 347.137Z" stroke="white" stroke-width="6" stroke-miterlimit="10" stroke-linecap="round"/>
<path d="M310.235 353.623L294.946 414.752H290.124C289.902 414.752 289.696 414.736 289.474 414.721C285.826 414.388 282.749 411.311 281.972 407.68L270.141 352.989C283.336 360.965 294.946 348.057 294.946 348.057L310.235 353.623Z" fill="#66B0F0"/>
<path d="M311.012 384.988C314.231 367.989 315.119 355.002 309.568 353.956C304.017 352.909 294.137 364.184 290.917 381.183C287.698 398.181 289.379 413.214 294.93 414.261C300.481 415.323 307.792 402.003 311.012 384.988Z" fill="white" stroke="#66B0F0" stroke-width="6" stroke-miterlimit="10" stroke-linejoin="round"/>
<path d="M288.697 380.913C287.031 389.73 286.54 398.245 287.333 404.905C287.904 409.694 289.109 413.103 290.759 414.753H290.124C289.902 414.753 289.696 414.737 289.474 414.721C287.983 412.755 286.92 409.456 286.381 405.016C285.572 398.277 286.064 389.651 287.761 380.739C289.363 372.303 292.598 364.39 296.896 358.444C299.466 354.892 302.162 352.402 304.62 351.276L306.048 351.752C300.386 353.433 291.789 364.596 288.697 380.913Z" fill="white"/>
<path d="M275.945 223.388L348.299 215.936L420.62 236.217L420.002 245.826C419.018 260.986 405.95 272.783 390.756 272.783H300.719L275.945 223.388Z" fill="#FE5244"/>
<path d="M416.497 235.519C416.497 249.283 402.762 266.123 387.568 266.123H297.531" stroke="white" stroke-width="6" stroke-miterlimit="10" stroke-linecap="round" stroke-linejoin="round"/>
<path d="M407.916 232.776C405.664 245.065 393.642 258.195 380.479 258.195H293.883" stroke="white" stroke-width="6" stroke-miterlimit="10" stroke-linecap="round" stroke-linejoin="round"/>
<path d="M398.163 229.858C394.356 240.292 384.031 250.107 372.85 250.107H289.284" stroke="white" stroke-width="6" stroke-miterlimit="10" stroke-linecap="round" stroke-linejoin="round"/>
<path d="M390.661 227.812C385.665 235.408 377.465 241.386 368.726 241.386H285.16" stroke="white" stroke-width="6" stroke-miterlimit="10" stroke-linecap="round" stroke-linejoin="round"/>
<path d="M382.287 225.466C377.481 230.302 371.264 233.458 364.761 233.458H281.195" stroke="white" stroke-width="6" stroke-miterlimit="10" stroke-linecap="round" stroke-linejoin="round"/>
<path d="M371.391 222.31C367.997 224.229 364.286 225.37 360.479 225.37H276.913" stroke="white" stroke-width="6" stroke-miterlimit="10" stroke-linecap="round" stroke-linejoin="round"/>
<path d="M300.544 272.783L275.787 223.388" stroke="white" stroke-width="6" stroke-miterlimit="10" stroke-linecap="round" stroke-linejoin="round"/>
<path d="M424.585 170.029C417.765 171.964 411.057 171.393 410.343 169.316C409.677 167.334 412.69 163.94 418.796 161.688C419.098 161.577 419.415 161.466 419.732 161.355C421.572 160.737 423.412 160.341 425.14 160.134C430.263 159.484 434.434 160.404 434.958 161.958C435.671 164.035 431.802 167.984 424.585 170.029Z" fill="white" stroke="#9F76ED" stroke-width="6" stroke-miterlimit="10" stroke-linejoin="round"/>
<path d="M420.271 216.269H417.654L410.787 169.918V169.887L410.613 168.729C410.946 166.62 414.245 163.639 420.065 161.704C422.968 160.737 425.854 160.309 428.312 160.261L430.818 167.127L431.056 167.778L438.986 189.518C443.744 202.505 434.117 216.269 420.271 216.269Z" fill="#A0505A"/>
<path d="M430.977 167.619C429.311 168.666 427.155 169.633 424.585 170.362C418.685 172.027 412.706 171.345 410.787 169.918V169.887L410.613 168.729C410.946 166.62 414.245 163.639 420.065 161.704C422.968 160.737 425.854 160.309 428.312 160.261L430.977 167.619Z" fill="#73325A"/>
<path d="M335.325 178.132L326.999 198.842C322.891 209.07 312.963 215.777 301.924 215.777H190V205.533C190 203.06 191.523 200.84 193.838 199.968L205.337 195.607C206.383 195.21 207.478 195.004 208.588 195.004H221.641L295.517 187.551L308.268 158.358L335.325 178.132Z" fill="#A0505A"/>
<path d="M202.054 201.902L193.378 205.185C191.634 205.851 190.476 207.516 190.476 209.387" stroke="#73325A" stroke-width="6" stroke-miterlimit="10" stroke-linecap="round"/>
<path d="M202.054 207.135L193.378 210.417C191.634 211.083 190.476 212.748 190.476 214.619" stroke="#73325A" stroke-width="6" stroke-miterlimit="10" stroke-linecap="round"/>
<path d="M202.054 212.178L193.378 215.302" stroke="#73325A" stroke-width="6" stroke-miterlimit="10" stroke-linecap="round"/>
<path d="M201.15 197.367C201.15 197.367 209.27 176.642 211.871 176.991C214.472 177.34 204.67 196.035 204.67 196.035L201.15 197.367Z" fill="#FE5244"/>
<path d="M308.268 158.374L306.397 162.64L330.361 190.469L335.325 178.132L308.268 158.374Z" fill="#73325A"/>
<path d="M410.787 169.934L420.62 236.217L348.315 215.935L335.325 178.116L301.797 153.617L313.565 139.599C324.065 127.088 339.56 119.857 355.896 119.857H379.13C399.336 119.857 417.94 130.893 427.63 148.622L435.164 161.656C435.164 161.656 432.896 158.326 420.668 161.672C409.899 164.637 410.787 169.934 410.787 169.934Z" fill="#9F76ED"/>
<path d="M335.325 177.815L339.084 161.514" stroke="white" stroke-width="6" stroke-miterlimit="10" stroke-linecap="round" stroke-linejoin="round"/>
<path d="M418.796 220.74L406.568 144.737" stroke="white" stroke-width="6" stroke-miterlimit="10" stroke-linecap="round" stroke-linejoin="round"/>
<path d="M348.299 215.634L420.462 236.217" stroke="white" stroke-width="6" stroke-miterlimit="10" stroke-linecap="round" stroke-linejoin="round"/>
<path d="M352.2 109.265V119.921L371.01 119.762V100.956L352.2 109.265Z" fill="#A0505A"/>
<path d="M372.533 97.6729V97.9583C372.533 100.813 370.376 103.128 367.521 103.128H366.411C365.697 105.95 359.353 109.249 354.849 109.249H349.599C343.858 109.249 339.465 104.095 340.4 98.4182L340.654 96.88L339.1 96.0079C338.212 95.5005 337.958 94.3429 338.576 93.5183L341.939 89.0783L342.668 84.7017C343.255 81.1022 345.618 78.1686 348.759 76.7256C349.996 90.664 362.303 92.3132 365.554 92.5034H367.362C370.217 92.5034 372.533 94.8186 372.533 97.6729Z" fill="#A0505A"/>
<path d="M364.206 99.0367C364.206 96.785 366.03 94.9614 368.282 94.9614" stroke="#73325A" stroke-width="6" stroke-miterlimit="10" stroke-linecap="round"/>
<path d="M347.014 92.6461C347.461 92.6461 347.823 91.8084 347.823 90.775C347.823 89.7416 347.461 88.9038 347.014 88.9038C346.567 88.9038 346.205 89.7416 346.205 90.775C346.205 91.8084 346.567 92.6461 347.014 92.6461Z" fill="#73325A"/>
<path d="M345.777 84.9872C345.777 84.9872 348.013 84.7652 350.313 87.9367" stroke="#73325A" stroke-width="6" stroke-miterlimit="10" stroke-linecap="round"/>
<path d="M365.554 92.5035H367.362C370.217 92.5035 372.533 94.8186 372.533 97.6729V97.9583C372.533 100.813 370.376 103.128 367.521 103.128L366.3 103.984C361.161 107.282 354.056 120.253 355.8 129.435C357.767 139.758 366.76 142.057 375.07 140.471C383.381 138.886 389.439 134.049 387.473 123.71C387.251 122.489 386.886 121.268 386.426 120.063C386.569 120.111 386.696 120.158 386.838 120.206C396.83 122.933 408.567 123.25 411.802 115.449C415.038 107.647 414.308 99.9246 404.586 95.8969C398.94 93.55 391.263 93.5659 385.316 95.1833C388.313 84.7652 382.984 73.1736 373.199 72.0161C357.83 70.1925 349.012 76.5353 348.774 76.7098C348.759 78.5492 350.011 91.5996 365.554 92.5035Z" fill="#73325A"/>
<path d="M385.712 94.8188C384.459 98.8941 381.874 103.255 377.671 106.22C377.671 106.22 385.094 111.12 386.838 120.222" stroke="white" stroke-width="6" stroke-miterlimit="10" stroke-linecap="round" stroke-linejoin="round"/>
<path d="M390.027 94.4699H385.824V90.2677C385.824 88.0636 387.6 86.2876 389.804 86.2876H390.027C392.231 86.2876 394.007 88.0636 394.007 90.2677V90.4897C394.023 92.678 392.231 94.4699 390.027 94.4699Z" stroke="#FE5244" stroke-width="6" stroke-miterlimit="10" stroke-linejoin="round"/>
<path d="M388.488 98.7831L385.792 94.5017L390.074 91.806C392.215 90.4581 395.054 91.0924 396.402 93.2331L396.656 93.6296C398.004 95.7703 397.369 98.6087 395.228 99.9566L394.832 100.21C392.659 101.558 389.836 100.924 388.488 98.7831Z" stroke="#FE5244" stroke-width="6" stroke-miterlimit="10" stroke-linejoin="round"/>
<path d="M363.651 106.426L366.649 103.556L369.583 106.87C371.026 108.535 370.836 111.057 369.17 112.484L368.996 112.626C367.331 114.069 364.809 113.879 363.382 112.214L363.239 112.04C361.796 110.391 361.986 107.869 363.651 106.426Z" stroke="#FE5244" stroke-width="6" stroke-miterlimit="10" stroke-linejoin="round"/>
<path d="M368.028 108.488L366.68 103.62L371.549 102.272C373.992 101.59 376.514 103.017 377.196 105.459L377.322 105.919C378.004 108.361 376.577 110.882 374.135 111.564L373.675 111.691C371.232 112.357 368.71 110.914 368.028 108.488Z" stroke="#FE5244" stroke-width="6" stroke-miterlimit="10" stroke-linejoin="round"/>
<path d="M324.747 284.978L297.118 414.261" stroke="#FFCF2D" stroke-width="6" stroke-miterlimit="10" stroke-linecap="round"/>
<path d="M395.45 284.978L423.079 414.261" stroke="#FFCF2D" stroke-width="6" stroke-miterlimit="10" stroke-linecap="round"/>
<path d="M303.24 385.559H416.576" stroke="#FFCF2D" stroke-width="6" stroke-miterlimit="10" stroke-linecap="round"/>
<path d="M417.194 284.977H302.987C301.543 284.977 300.37 283.804 300.37 282.361V275.4C300.37 273.957 301.543 272.783 302.987 272.783H417.194C418.638 272.783 419.811 273.957 419.811 275.4V282.361C419.811 283.804 418.638 284.977 417.194 284.977Z" fill="white" stroke="#66B0F0" stroke-width="6" stroke-miterlimit="10" stroke-linejoin="round"/>
</svg>
